<?xml version="1.0" encoding="UTF-8"?><svg id="Layer_1" xmlns="http://www.w3.org/2000/svg" viewBox="0 0 1404.43 207.88"><defs><style>.cls-1{stroke-width:23px;}.cls-1,.cls-2,.cls-3,.cls-4,.cls-5,.cls-6,.cls-7,.cls-8{stroke:#231f20;stroke-miterlimit:10;}.cls-1,.cls-5{fill:none;}.cls-2,.cls-5{stroke-width:20px;}.cls-2,.cls-6{fill:#fff;}.cls-3{stroke-width:2px;}.cls-3,.cls-4,.cls-7,.cls-8{fill:#231f20;}.cls-4{stroke-width:.25px;}.cls-8{stroke-width:.75px;}</style></defs><polygon class="cls-7" points="103.31 25.58 65.43 140.8 27.55 25.58 .71 25.58 52.01 166.06 79.64 166.06 133.3 25.58 103.31 25.58"/><path class="cls-7" d="m171.5,25.58l-52.09,140.48h26.04l11.84-34.72h47.35c17.64,39.03,2.24,34.92,38.86,34.72L194.34,25.58h-22.84Z"/><polygon class="cls-4" points="266.18 25.58 266.18 166.06 289.97 166.06 289.97 107.54 351.84 107.54 351.84 166.06 375.63 166.06 375.63 25.58 349.46 25.58 349.46 77.18 292.35 77.18 293.15 25.58 266.18 25.58"/><polygon class="cls-7" points="403.39 25.58 403.39 166.06 488.26 166.06 488.26 143.23 430.36 143.23 428.78 25.58 403.39 25.58"/><polygon class="cls-3" points="1291.93 32.69 1291.93 173.16 1350.02 173.16 1362.11 150.34 1314.23 150.34 1312.92 32.69 1291.93 32.69"/><polygon class="cls-2" points="603.88 13.85 534.71 85.12 657.69 194.12 770.18 80.22 700.31 13.85 652.44 57.17 603.88 13.85"/><polygon class="cls-8" points="816.63 33.3 861.04 173.77 887.22 173.77 914.19 76.39 941.95 173.77 966.53 173.77 1005.4 33.3 976.84 33.3 955.89 123.08 931.63 33.3 895.15 33.3 873.29 124.91 846.77 33.3 816.63 33.3"/><path class="cls-1" d="m1087.42,46.74c-58.26-26.9-100.65,70.08-43.09,112.27,69.48,39.74,103.32-85.08,43.09-112.27Z"/><path class="cls-1" d="m1227.25,45.68c-58.26-26.9-100.65,70.08-43.09,112.27,69.48,39.74,103.32-85.08,43.09-112.27Z"/><path class="cls-1" d="m1297.27,45.2c46.88-6.9,106.56,4.08,93.96,75.81-9.73,44.81-41.88,42.71-92.94,40.1"/><path class="cls-6" d="m182.04,62.03c-5.2,16.06-10.39,32.12-15.59,48.18h31.54l-15.95-48.18Z"/><polyline class="cls-5" points="574.01 55.52 652.57 128.03 734.8 42.1 616.82 165.86"/></svg>